<?xml version="1.0" encoding="UTF-8" standalone="no"?>
<!DOCTYPE svg PUBLIC "-//W3C//DTD SVG 1.1//EN" "http://www.w3.org/Graphics/SVG/1.1/DTD/svg11.dtd">
<svg width="100%" height="100%" viewBox="0 0 78 78" version="1.1" xmlns="http://www.w3.org/2000/svg" xmlns:xlink="http://www.w3.org/1999/xlink" xml:space="preserve" xmlns:serif="http://www.serif.com/" style="fill-rule:evenodd;clip-rule:evenodd;stroke-linecap:round;stroke-linejoin:round;stroke-miterlimit:1.5;">
    <g transform="matrix(1,0,0,1,-5826,-575)">
        <g transform="matrix(1,0,0,1,4904.57,150.199)">
            <g transform="matrix(0.75,0,0,0.75,275.662,130.991)">
                <g transform="matrix(1.05154,0,0,1.05154,-528.598,-1302.73)">
                    <rect x="1322.86" y="1613.13" width="95.098" height="95.098" style="fill:none;stroke:#dadddf;stroke-width:2.54px;"/>
                </g>
                <g transform="matrix(1,0,0,1,-435.431,-1212.17)">
                    <g transform="matrix(48,0,0,48,1315.51,1672.51)">
                        <path d="M0.378,-0.7c0.091,0 0.162,0.022 0.214,0.065c0.052,0.043 0.078,0.103 0.078,0.179c0,0.076 -0.026,0.136 -0.078,0.179c-0.052,0.043 -0.123,0.065 -0.214,0.065l-0.173,0l0,0.212l-0.1,0l0,-0.7l0.273,0Zm-0.003,0.401c0.063,0 0.112,-0.013 0.145,-0.04c0.033,-0.027 0.05,-0.066 0.05,-0.117c0,-0.051 -0.017,-0.089 -0.05,-0.116c-0.033,-0.027 -0.082,-0.041 -0.145,-0.041l-0.17,0l0,0.314l0.17,0Z" style="fill:#dadddf;fill-rule:nonzero;"/>
                    </g>
                    <g transform="matrix(48,0,0,48,1346.85,1672.51)">
                        <path d="M0.374,-0.535c0.067,0 0.121,0.02 0.16,0.058c0.04,0.04 0.06,0.097 0.06,0.172l0,0.305l-0.096,0l0,-0.294c0,-0.051 -0.012,-0.09 -0.037,-0.116c-0.025,-0.026 -0.06,-0.039 -0.106,-0.039c-0.052,0 -0.093,0.015 -0.123,0.045c-0.03,0.031 -0.045,0.074 -0.045,0.131l0,0.273l-0.096,0l0,-0.53l0.092,0l0,0.08c0.019,-0.027 0.045,-0.048 0.078,-0.063c0.033,-0.015 0.071,-0.022 0.113,-0.022Z" style="fill:#dadddf;fill-rule:nonzero;"/>
                    </g>
                </g>
            </g>
        </g>
    </g>
</svg>
